<?xml version="1.0" standalone="no"?>
<!DOCTYPE svg PUBLIC "-//W3C//DTD SVG 20010904//EN"
 "http://www.w3.org/TR/2001/REC-SVG-20010904/DTD/svg10.dtd">
<svg version="1.0" xmlns="http://www.w3.org/2000/svg"
 width="1440.000000pt" height="1024.000000pt" viewBox="0 0 1440.000000 1024.000000"
 preserveAspectRatio="xMidYMid meet">

<g transform="translate(0.000000,1024.000000) scale(0.100000,-0.100000)"
fill="#000000" stroke="none">
<path d="M4756 9793 c-3 -4 -6 -19 -6 -34 0 -15 -4 -30 -9 -33 -7 -5 -22 -63
-26 -101 0 -5 -4 -15 -8 -22 -8 -12 -27 -95 -30 -125 -1 -10 -4 -18 -8 -18 -4
0 -9 -15 -12 -32 -13 -80 -41 -203 -48 -208 -4 -3 -9 -25 -12 -50 -3 -25 -9
-70 -13 -100 -3 -30 -10 -57 -14 -60 -4 -3 -8 -36 -9 -75 -1 -41 -7 -73 -14
-77 -9 -6 -8 -11 3 -18 11 -7 12 -12 4 -17 -11 -7 -17 -74 -28 -313 -3 -72 -3
-73 4 -15 l7 60 -1 -60 -1 -60 -40 1 c-47 1 -178 34 -183 46 -2 4 -21 8 -43 8
-21 0 -39 4 -39 8 0 4 -17 9 -37 10 -21 2 -40 6 -43 10 -3 4 -23 9 -45 11 -22
1 -41 7 -43 12 -2 5 -28 9 -57 9 -30 0 -56 4 -59 9 -3 5 -45 11 -93 15 -83 6
-387 10 -408 6 -5 -1 -14 -3 -20 -5 -5 -1 -25 -3 -42 -3 -28 -2 -33 -6 -33
-28 0 -14 4 -23 10 -19 6 4 10 -6 10 -22 0 -16 6 -35 13 -42 10 -11 9 -12 -3
-6 -12 6 -13 5 -2 -6 6 -7 12 -26 12 -41 0 -15 4 -28 8 -28 4 0 9 -16 10 -36
2 -20 7 -45 12 -55 6 -10 10 -28 10 -42 0 -13 3 -27 7 -30 3 -4 7 -17 9 -30 1
-12 5 -33 8 -47 3 -14 8 -46 11 -72 5 -48 -6 -68 -28 -50 -26 21 -510 20 -536
-1 -12 -10 -13 -9 -6 3 6 12 5 13 -6 3 -7 -7 -37 -13 -66 -13 -29 0 -53 -4
-53 -9 0 -5 -15 -11 -32 -14 -78 -14 -97 -20 -92 -28 3 -5 -3 -9 -12 -9 -25 0
-84 -23 -84 -32 0 -4 -5 -8 -11 -8 -7 0 -27 -10 -47 -22 l-35 -21 22 -18 c11
-9 21 -24 21 -33 0 -9 5 -16 10 -16 6 0 10 -9 10 -20 0 -11 5 -20 10 -20 6 0
10 -38 10 -95 0 -69 -3 -95 -12 -95 -9 0 -8 -4 2 -10 8 -5 10 -10 4 -10 -6 0
-14 -13 -17 -29 -3 -16 -12 -35 -19 -43 -7 -7 -14 -19 -16 -26 -1 -7 -11 -23
-22 -35 -11 -11 -20 -24 -20 -29 0 -4 -16 -23 -35 -42 -19 -20 -35 -40 -35
-46 0 -6 -4 -9 -9 -5 -5 3 -12 -4 -16 -15 -3 -11 -24 -38 -46 -61 -22 -22 -36
-46 -32 -52 3 -7 3 -9 -2 -5 -4 4 -13 2 -19 -5 -23 -23 -86 -122 -86 -134 0
-7 -6 -13 -14 -13 -8 0 -18 -9 -21 -20 -3 -11 -11 -20 -17 -20 -6 0 -9 -3 -5
-6 6 -6 -41 -76 -55 -82 -5 -2 -8 -12 -8 -23 0 -10 -4 -19 -10 -19 -5 0 -10
-9 -10 -21 0 -11 -4 -18 -9 -15 -5 3 -12 -5 -15 -18 -3 -14 -12 -31 -19 -38
-16 -17 -68 -121 -64 -130 1 -3 -8 -17 -20 -30 -12 -13 -22 -27 -21 -31 0 -16
-25 -67 -33 -67 -5 0 -9 -9 -9 -19 0 -11 -4 -23 -10 -26 -5 -3 -10 -15 -10
-26 0 -10 -4 -19 -10 -19 -5 0 -10 -9 -10 -19 0 -11 -4 -23 -10 -26 -5 -3 -10
-17 -10 -31 0 -13 -5 -24 -11 -24 -5 0 -8 -4 -5 -9 3 -4 -1 -17 -9 -27 -8 -10
-15 -31 -15 -46 0 -16 -3 -28 -7 -28 -5 0 -9 -12 -10 -26 0 -15 -5 -29 -10
-33 -7 -6 -10 -13 -18 -51 -2 -8 -4 -17 -5 -20 -1 -3 -2 -9 -1 -14 1 -5 -3
-12 -8 -16 -6 -3 -12 -19 -15 -36 -2 -16 -7 -37 -11 -46 -4 -10 -8 -29 -9 -43
0 -14 -3 -25 -7 -25 -4 0 -24 -96 -33 -162 -1 -10 -5 -21 -9 -24 -4 -4 -7 -24
-7 -45 0 -21 -4 -41 -10 -44 -15 -9 -12 -27 3 -19 10 6 10 4 0 -7 -7 -7 -13
-34 -13 -60 0 -26 -4 -51 -10 -54 -5 -3 -10 -11 -10 -16 0 -6 5 -7 10 -4 6 3
10 1 10 -4 0 -6 -4 -11 -9 -11 -5 0 -12 -39 -14 -87 -3 -49 -8 -106 -11 -128
-5 -31 -4 -35 4 -20 8 16 9 12 4 -15 -10 -52 -10 -211 -1 -245 7 -24 6 -27 -3
-15 -9 12 -10 9 -4 -15 3 -16 9 -70 11 -120 3 -49 10 -96 16 -104 9 -12 9 -13
-1 -7 -6 4 -12 3 -12 -3 0 -5 4 -12 9 -15 5 -3 11 -32 14 -63 15 -138 20 -172
26 -169 3 2 7 -16 9 -42 2 -25 7 -53 13 -63 5 -10 9 -28 9 -40 0 -22 20 -89
30 -99 3 -3 6 -14 8 -25 3 -22 9 -49 12 -52 2 -2 4 -7 5 -13 1 -5 3 -11 5 -12
1 -2 3 -11 6 -20 2 -10 6 -24 8 -30 2 -7 7 -28 11 -45 4 -18 11 -33 16 -33 5
0 9 -11 9 -24 0 -14 5 -28 10 -31 6 -3 10 -15 10 -25 0 -10 4 -20 9 -22 5 -1
11 -12 13 -23 1 -11 11 -28 20 -39 9 -10 22 -38 29 -61 7 -24 16 -42 20 -40 3
3 12 -13 19 -35 7 -22 21 -48 32 -59 10 -11 18 -24 18 -30 0 -5 5 -11 11 -13
5 -2 11 -11 13 -21 1 -9 12 -28 23 -41 12 -13 19 -26 17 -29 -2 -2 2 -10 11
-17 8 -7 15 -19 15 -27 0 -8 5 -11 10 -8 6 3 10 -1 10 -10 0 -19 25 -47 34
-38 3 4 6 -4 6 -16 0 -12 4 -19 10 -16 6 3 10 -1 10 -10 0 -9 4 -14 9 -11 10
7 9 31 -2 42 -4 4 -7 16 -7 26 0 10 -4 18 -10 18 -5 0 -10 9 -10 19 0 11 -4
23 -10 26 -5 3 -10 18 -10 33 0 21 -2 24 -10 12 -7 -11 -10 -7 -10 18 0 17 -4
32 -10 32 -5 0 -10 9 -10 20 0 11 -4 20 -8 20 -7 0 -11 16 -14 58 -1 6 -5 12
-10 12 -4 0 -8 11 -8 24 0 14 -5 28 -10 31 -5 3 -10 12 -10 19 0 8 -8 31 -17
52 -9 22 -18 50 -20 64 -3 13 -7 27 -11 30 -4 3 -9 19 -11 35 -1 17 -8 33 -13
36 -6 4 -7 12 -3 18 4 7 3 17 -2 24 -11 14 -38 126 -34 145 1 6 -3 12 -9 12
-5 0 -10 12 -10 28 0 15 -4 43 -10 62 -5 19 -11 51 -13 70 -2 20 -6 41 -10 46
-3 6 -7 39 -8 72 -1 34 -6 62 -10 62 -5 0 -9 31 -9 68 0 41 -5 73 -12 81 -11
11 -11 13 0 7 15 -9 16 16 2 30 -13 13 -9 430 4 458 7 14 6 17 -2 12 -7 -4
-12 -2 -12 3 0 6 5 11 10 11 6 0 10 30 10 70 0 39 4 70 9 70 4 0 9 28 10 63 1
34 6 64 11 65 6 2 10 8 10 13 0 6 -6 7 -13 3 -9 -6 -9 -4 1 7 6 7 12 28 12 46
0 18 4 33 9 33 5 0 11 19 14 43 4 36 9 64 21 112 2 6 5 17 8 25 9 23 40 134
42 145 0 6 4 12 8 15 4 3 8 17 10 32 2 15 7 30 11 34 4 4 7 18 7 31 0 14 4 21
10 18 6 -4 10 5 10 19 0 14 5 26 10 26 6 0 10 10 10 23 0 12 9 33 20 47 11 14
20 35 20 48 0 13 4 20 10 17 6 -3 10 4 10 18 0 13 8 32 18 43 9 11 18 26 20
34 2 8 8 17 13 18 5 2 9 12 9 23 0 10 5 19 12 19 6 0 8 3 5 7 -4 3 0 15 10 25
9 10 13 18 9 18 -4 0 0 7 8 16 9 8 14 19 11 24 -3 4 2 11 11 14 8 3 13 10 10
14 -3 5 4 18 14 30 11 12 20 25 20 29 0 5 9 15 20 23 11 8 20 21 20 29 0 7 8
21 18 30 9 9 18 23 20 31 2 8 8 17 13 18 5 2 9 10 9 18 0 9 5 12 10 9 6 -3 10
1 10 9 0 9 4 16 8 16 5 0 15 12 23 27 15 29 25 43 83 106 19 20 32 37 30 37
-3 0 16 21 41 46 25 25 45 49 45 51 0 3 17 21 37 39 20 19 33 34 29 34 -4 0
14 19 40 43 57 50 138 132 175 175 22 26 37 57 43 92 1 3 5 11 9 17 4 7 11 27
14 45 7 37 8 213 1 243 -7 32 -38 97 -54 112 -19 20 -18 33 4 33 10 0 24 6 31
13 11 10 13 10 7 0 -9 -16 6 -17 20 -3 17 17 548 4 634 -16 14 -3 50 -9 80
-14 108 -17 124 -20 156 -32 41 -14 64 -5 64 26 0 14 4 27 9 30 13 8 11 254
-1 285 -6 14 -19 45 -29 68 -11 24 -19 47 -19 53 0 5 -4 10 -10 10 -5 0 -10 9
-10 21 0 11 -4 17 -10 14 -5 -3 -10 1 -10 10 0 14 10 16 63 14 34 -2 66 -5 72
-8 5 -3 26 -6 45 -8 19 -1 51 -5 70 -8 19 -3 46 -7 60 -10 14 -2 36 -6 50 -10
14 -4 34 -8 45 -10 11 -3 37 -8 57 -13 20 -6 39 -8 42 -5 2 2 18 -3 35 -12 18
-9 36 -13 40 -10 5 3 11 1 13 -4 1 -5 17 -11 33 -14 32 -4 60 -13 87 -28 10
-5 27 -9 38 -9 11 0 20 -4 20 -10 0 -5 16 -10 35 -10 19 0 35 -4 35 -10 0 -5
9 -10 20 -10 11 0 20 -4 20 -10 0 -5 14 -10 31 -10 17 0 28 -4 24 -10 -3 -5 2
-10 12 -10 23 0 73 -22 73 -32 0 -5 9 -8 19 -8 11 0 21 -3 23 -7 2 -5 27 -21
57 -37 49 -26 53 -27 47 -8 -9 26 -10 315 -2 412 4 42 7 104 9 138 1 34 5 62
8 62 4 0 8 30 9 68 4 106 5 110 12 106 3 -2 9 20 12 48 10 101 18 138 30 138
12 0 46 -35 46 -48 0 -4 9 -14 20 -22 11 -8 20 -18 20 -22 0 -5 14 -22 30 -40
17 -17 30 -35 30 -40 0 -5 4 -7 8 -4 5 3 19 -12 31 -33 11 -22 37 -53 56 -70
20 -17 35 -33 35 -36 0 -22 1 -25 10 -20 6 3 10 1 10 -5 0 -6 21 -32 48 -59
76 -78 142 -150 142 -156 0 -8 27 -35 34 -35 8 0 46 -38 46 -45 0 -7 67 -74
72 -72 1 1 26 -22 54 -50 28 -29 49 -53 47 -53 -2 0 2 -7 11 -15 8 -8 20 -15
26 -15 6 0 8 -4 5 -10 -6 -9 8 -14 28 -11 5 1 6 -3 2 -9 -3 -5 2 -10 12 -10
15 0 16 -2 3 -10 -10 -6 -11 -10 -3 -10 7 0 39 -25 70 -55 32 -30 64 -55 72
-55 8 0 12 -3 8 -6 -8 -8 18 -34 34 -34 7 0 9 -3 6 -6 -7 -7 50 -64 63 -64 8
0 34 -22 132 -115 31 -29 64 -55 75 -58 10 -3 4 -5 -14 -4 -17 1 -30 4 -27 8
4 7 -28 10 -111 11 -44 0 -136 -8 -165 -16 -14 -3 -40 -7 -57 -8 -18 -1 -33
-4 -33 -8 0 -17 -302 -18 -308 -1 -5 16 -22 13 -22 -4 0 -8 5 -15 10 -15 6 0
10 -11 10 -24 0 -13 4 -26 10 -28 5 -1 11 -15 12 -30 1 -16 6 -28 10 -28 4 0
8 -7 8 -15 0 -8 4 -23 9 -33 6 -9 30 -60 55 -112 25 -52 51 -104 58 -115 22
-34 120 -125 134 -125 8 0 14 -4 14 -10 0 -5 11 -10 25 -10 14 0 25 -4 25 -10
0 -6 56 -10 149 -10 89 0 152 -4 156 -10 3 -5 25 -10 47 -10 45 0 108 -19 108
-33 0 -4 4 -6 8 -3 9 5 182 -79 192 -93 3 -4 20 -16 38 -26 17 -11 32 -23 32
-27 0 -4 6 -8 13 -8 7 0 19 -9 27 -20 8 -11 23 -20 33 -20 10 0 15 -4 12 -10
-3 -5 1 -10 10 -10 9 0 13 -4 10 -10 -3 -5 1 -10 10 -10 9 0 13 -4 10 -10 -3
-5 -2 -10 4 -10 6 0 21 -11 35 -25 14 -14 28 -25 32 -25 4 0 20 -16 37 -35 16
-19 33 -32 38 -29 5 3 8 2 7 -3 -2 -5 7 -19 20 -33 12 -13 22 -27 22 -30 0 -4
11 -13 25 -20 13 -7 23 -16 20 -20 -2 -3 16 -27 40 -52 23 -25 40 -49 36 -54
-5 -8 -39 -11 -166 -14 -28 -1 -115 -30 -115 -39 0 -4 32 -40 70 -81 39 -41
70 -82 70 -92 0 -10 5 -18 11 -18 5 0 8 -4 4 -9 -3 -5 2 -16 10 -25 9 -8 15
-17 15 -18 -2 -5 10 -60 26 -113 7 -27 11 -60 8 -72 -4 -13 -2 -23 2 -23 5 0
9 -14 9 -32 0 -25 -4 -32 -22 -33 -13 -1 -23 2 -23 6 0 4 -15 7 -34 7 -19 0
-39 3 -44 6 -5 3 -29 8 -53 11 -23 3 -46 11 -50 17 -5 7 -11 9 -15 5 -4 -4
-13 -2 -19 3 -7 6 -24 11 -39 12 -14 1 -26 5 -26 8 0 3 -29 17 -65 30 -36 13
-65 28 -65 32 0 4 -6 8 -13 8 -18 0 -67 24 -67 33 0 4 -9 7 -20 7 -11 0 -20 5
-20 10 0 6 -4 10 -9 10 -18 0 -173 97 -209 130 -12 11 -25 21 -29 22 -9 3 -35
23 -74 58 -45 41 -69 60 -69 56 0 -3 -15 0 -32 5 -62 18 -150 36 -200 41 -16
1 -28 5 -28 9 0 4 -10 7 -22 6 -13 0 -63 4 -113 9 -112 10 -142 11 -230 0 -38
-4 -81 -9 -95 -10 -14 -2 -35 -8 -46 -14 -12 -6 -24 -8 -28 -5 -3 3 -6 2 -6
-3 0 -5 -12 -11 -27 -12 -16 -1 -29 -7 -31 -12 -2 -6 -9 -10 -16 -10 -18 0
-66 -24 -66 -32 0 -5 -5 -8 -10 -8 -6 0 -21 -10 -34 -22 -13 -13 -33 -30 -45
-38 -11 -8 -21 -21 -21 -29 0 -8 -3 -12 -6 -8 -7 7 -54 -46 -54 -62 0 -6 -5
-11 -11 -11 -5 0 -7 -4 -4 -10 3 -5 1 -10 -4 -10 -6 0 -11 -9 -11 -20 0 -11
-4 -20 -10 -20 -5 0 -10 -9 -10 -21 0 -11 -4 -17 -10 -14 -9 5 -15 -15 -11
-37 0 -5 -4 -8 -9 -8 -6 0 -10 -9 -10 -20 0 -11 -4 -20 -8 -20 -4 0 -9 -11
-10 -26 -1 -14 -6 -34 -12 -44 -5 -10 -10 -37 -10 -59 0 -23 -4 -41 -10 -41
-5 0 -10 -22 -10 -49 0 -30 -5 -51 -12 -54 -10 -4 -9 -8 2 -16 10 -7 11 -11 3
-11 -10 0 -13 -55 -13 -239 0 -182 3 -241 13 -244 10 -4 10 -6 0 -6 -15 -1
-18 -28 -4 -33 6 -1 11 -41 12 -88 1 -47 5 -87 9 -90 4 -3 10 -34 14 -70 10
-110 18 -154 30 -169 9 -12 8 -13 -2 -7 -11 7 -12 4 -4 -10 6 -11 11 -37 13
-59 1 -22 6 -47 10 -55 6 -14 12 -45 26 -143 3 -20 9 -39 14 -42 10 -7 0 -35
-13 -35 -5 0 -20 10 -33 22 -35 34 -49 44 -73 57 -13 7 -20 16 -17 21 3 5 -4
11 -15 15 -25 8 -170 147 -170 164 0 7 -4 10 -9 7 -5 -3 -14 8 -21 24 -7 17
-16 30 -21 30 -5 0 -9 7 -9 16 0 18 -28 49 -37 40 -4 -3 -7 -16 -9 -29 -1 -12
-3 -22 -4 -22 -1 0 -4 -34 -5 -75 -2 -41 -7 -111 -10 -155 -4 -44 -8 -132 -10
-195 -2 -63 -7 -149 -10 -190 -7 -79 -11 -205 -21 -685 -3 -159 -10 -294 -14
-299 -5 -5 -25 -2 -48 7 -22 9 -42 13 -45 10 -3 -3 -18 4 -33 16 -15 11 -37
21 -50 21 -13 0 -24 4 -24 8 0 5 -18 15 -40 22 -21 7 -37 17 -34 21 3 5 -4 9
-16 9 -12 0 -18 5 -15 10 3 5 -3 10 -14 10 -12 0 -21 4 -21 8 0 5 -12 15 -27
23 -16 8 -37 22 -47 32 -11 9 -25 17 -31 17 -6 0 -17 9 -25 19 -7 11 -17 18
-22 15 -4 -3 -8 0 -8 5 0 6 -5 11 -12 11 -6 0 -29 18 -50 41 -21 22 -38 38
-38 35 0 -4 -29 23 -64 59 -36 36 -70 65 -76 65 -6 0 -8 5 -5 10 3 5 -2 10
-11 10 -10 0 -14 3 -10 7 4 4 -5 19 -18 33 -89 90 -115 120 -105 120 6 0 -3
13 -20 29 -17 16 -31 33 -31 39 0 5 -13 23 -29 40 -16 16 -27 33 -24 36 3 3
-2 8 -11 12 -9 3 -16 12 -16 20 0 8 -9 23 -20 34 -11 11 -21 23 -22 28 -6 30
-12 42 -19 42 -5 0 -9 7 -9 16 0 8 -5 12 -10 9 -6 -4 -9 -3 -8 2 4 12 -25 73
-34 73 -5 0 -8 9 -8 20 0 11 -4 20 -8 20 -5 0 -14 16 -22 35 -8 19 -16 35 -19
35 -3 0 -7 -20 -8 -45 -1 -25 2 -45 6 -45 4 0 7 -8 8 -17 4 -62 10 -103 16
-109 4 -4 7 -22 7 -41 0 -18 5 -33 10 -33 6 0 10 -16 10 -35 0 -19 5 -35 10
-35 6 0 10 -11 10 -24 0 -14 5 -28 10 -31 6 -3 10 -15 10 -26 0 -10 5 -19 10
-19 6 0 10 -9 10 -20 0 -11 5 -20 10 -20 6 0 10 -4 10 -10 0 -18 73 -160 82
-160 5 0 7 -4 3 -9 -3 -5 0 -15 7 -23 7 -7 19 -25 27 -40 8 -16 18 -28 23 -28
4 0 8 -7 8 -15 0 -8 5 -15 10 -15 6 0 10 -7 10 -15 0 -8 5 -15 10 -15 6 0 10
-7 10 -16 0 -8 5 -12 10 -9 6 3 10 0 10 -7 0 -8 9 -20 20 -28 11 -8 20 -20 20
-28 0 -7 4 -11 9 -7 5 3 12 -3 15 -12 4 -10 24 -37 46 -61 22 -24 40 -45 40
-48 0 -11 28 -33 34 -27 3 4 6 1 6 -7 0 -7 23 -33 51 -59 29 -25 69 -62 90
-81 21 -19 54 -48 74 -65 19 -16 42 -36 50 -43 7 -6 21 -12 30 -12 9 0 14 -4
11 -8 -3 -4 13 -19 35 -32 21 -14 39 -28 39 -32 0 -5 7 -8 15 -8 8 0 15 -4 15
-10 0 -5 8 -10 18 -10 10 0 24 -9 32 -20 8 -11 20 -20 27 -20 7 0 13 -4 13
-10 0 -5 8 -10 18 -10 11 0 29 -9 42 -20 12 -11 26 -17 30 -15 5 3 10 0 12 -5
2 -6 10 -12 19 -13 9 -2 27 -10 40 -18 47 -30 119 -59 146 -59 20 0 24 -3 14
-9 -9 -6 -3 -10 20 -15 79 -16 89 -19 89 -27 0 -5 16 -9 35 -9 19 0 35 -4 35
-10 0 -5 21 -10 46 -10 25 0 54 -4 64 -10 27 -14 31 7 14 76 -7 32 -11 66 -8
75 2 9 0 39 -6 65 -6 27 -13 101 -15 164 -3 63 -7 187 -10 275 -3 88 -8 243
-10 345 -10 430 -17 570 -29 570 -6 0 -3 5 7 11 14 8 22 6 36 -10 10 -11 21
-18 24 -14 4 3 9 -2 13 -11 3 -9 10 -16 15 -16 11 0 68 -40 103 -73 16 -15 31
-25 34 -22 2 2 17 -9 32 -25 15 -16 33 -30 40 -32 7 -2 25 -15 40 -30 15 -16
31 -28 36 -28 5 0 16 -9 24 -20 8 -11 20 -20 27 -20 7 0 13 -4 13 -10 0 -5 5
-10 10 -10 6 0 22 -11 35 -24 13 -14 34 -27 45 -31 11 -3 20 -10 20 -15 0 -4
8 -10 18 -14 21 -7 49 -25 76 -48 11 -10 23 -18 28 -18 11 0 10 24 -1 35 -6 6
-12 21 -15 35 -6 32 -21 77 -36 115 -7 17 -15 39 -17 49 -2 11 -8 25 -13 31
-5 7 -8 14 -5 17 3 3 -2 21 -10 41 -8 20 -15 38 -14 39 1 4 -10 37 -22 66 -5
13 -9 36 -9 52 0 16 -4 32 -10 35 -5 3 -10 19 -10 36 0 16 -4 29 -10 29 -5 0
-10 13 -10 29 0 17 -4 33 -10 36 -5 3 -10 24 -10 46 0 21 -4 39 -10 39 -5 0
-10 14 -10 30 0 17 -4 38 -9 48 -11 22 -31 106 -31 132 0 11 -4 20 -8 20 -7 0
-12 32 -15 88 0 6 -4 12 -9 12 -5 0 -7 4 -4 9 3 4 -1 32 -8 61 -8 30 -12 59
-9 66 2 6 -1 32 -8 55 -7 24 -13 60 -14 79 -2 19 -7 65 -13 102 -6 37 -8 76
-5 88 3 11 1 26 -4 33 -14 17 -15 367 -2 367 6 0 8 9 4 20 -3 10 -1 38 5 61 7
24 13 52 15 63 1 12 7 32 13 46 5 14 8 28 5 33 -2 4 1 7 6 7 6 0 11 9 11 19 0
11 5 23 10 26 6 3 10 14 10 23 0 21 90 122 108 122 6 0 12 4 12 9 0 17 84 50
145 57 90 10 257 10 280 1 16 -7 17 -7 5 2 -8 6 -10 11 -4 11 5 0 14 -4 20 -9
5 -6 33 -11 62 -12 28 -2 52 -7 52 -12 0 -5 7 -7 15 -3 8 3 28 0 43 -6 15 -6
34 -12 43 -13 8 -1 44 -12 80 -25 35 -12 71 -24 79 -25 8 -2 17 -4 20 -5 3 -1
8 -2 13 -1 4 0 7 -4 7 -9 0 -6 9 -10 21 -10 11 0 33 -8 47 -18 15 -10 51 -29
79 -42 29 -14 53 -28 53 -32 0 -5 12 -8 26 -8 17 0 23 -4 18 -12 -4 -7 -4 -10
0 -6 5 4 22 -1 40 -10 35 -20 118 -74 126 -82 3 -3 26 -19 52 -35 27 -17 48
-33 48 -37 0 -5 9 -8 21 -8 11 0 17 -4 14 -10 -3 -6 3 -10 15 -10 12 0 18 -4
15 -10 -3 -5 0 -10 7 -10 8 0 20 -9 28 -20 8 -11 19 -20 25 -20 17 0 65 -24
65 -33 0 -5 4 -6 9 -3 5 3 14 -1 21 -9 7 -8 25 -15 41 -15 15 0 31 -4 34 -10
3 -5 16 -8 28 -6 12 3 30 5 39 5 9 1 23 7 30 13 7 7 22 15 33 16 11 2 22 7 25
11 7 9 73 31 93 31 9 0 17 5 17 10 0 6 13 10 29 10 17 0 33 5 36 10 3 6 19 10
36 10 16 0 29 5 29 10 0 6 8 10 18 10 10 0 24 6 31 13 11 10 12 9 6 -3 -6 -12
-5 -13 6 -2 7 6 25 12 40 12 15 0 30 4 34 9 3 5 30 15 60 22 30 7 55 15 55 18
0 4 12 8 27 9 15 1 30 8 35 15 4 6 8 9 8 4 0 -4 14 -1 30 8 17 9 30 13 30 10
0 -3 20 6 45 19 25 14 45 23 45 20 0 -3 7 2 16 10 8 9 20 13 26 10 7 -4 8 -2
4 4 -4 7 -2 12 3 12 24 0 104 78 122 118 7 17 17 32 21 32 5 0 8 13 8 28 0 15
5 33 12 40 9 9 9 12 -1 12 -10 0 -11 3 -2 14 20 23 10 98 -16 126 -13 14 -23
22 -23 18 0 -3 -15 8 -34 25 -66 63 -121 107 -131 107 -6 0 -17 9 -25 20 -8
11 -18 20 -22 20 -8 0 -36 21 -64 48 -8 7 -14 11 -14 8 0 -6 -38 24 -72 57
-10 9 -23 17 -29 17 -5 0 -7 5 -4 10 3 6 -1 10 -10 10 -9 0 -26 10 -39 23 -36
34 -65 57 -74 57 -4 0 -14 9 -22 19 -7 11 -17 18 -21 16 -4 -3 -9 2 -13 10 -3
8 -11 15 -17 15 -6 0 -22 11 -34 24 -13 14 -25 23 -27 21 -2 -2 -28 18 -58 46
-30 27 -67 57 -82 67 -16 9 -28 20 -28 24 0 4 -7 8 -16 8 -8 0 -12 5 -9 10 3
6 1 10 -5 10 -17 0 -100 86 -100 104 0 9 -4 16 -10 16 -5 0 -10 6 -10 14 0 8
-3 16 -7 18 -11 4 -53 83 -53 97 0 7 -8 23 -17 38 -10 14 -19 35 -20 47 -2 11
-9 24 -16 28 -6 4 -8 8 -4 8 4 0 2 10 -5 23 -7 12 -13 24 -13 27 -1 3 -13 31
-28 64 -15 32 -27 65 -27 72 0 8 -4 14 -10 14 -5 0 -10 9 -10 20 0 11 -4 20
-10 20 -5 0 -10 7 -10 15 0 8 -4 15 -10 15 -5 0 -10 5 -10 10 0 6 -9 20 -20
32 -11 12 -20 29 -20 37 0 14 -1 14 -10 1 -9 -13 -10 -13 -11 0 -1 8 -1 18 0
23 0 4 -5 6 -11 5 -7 -2 -12 3 -10 10 1 6 -2 12 -7 12 -5 0 -23 14 -40 31 -17
17 -31 28 -31 25 0 -3 -22 17 -50 44 -27 28 -52 50 -55 50 -4 0 -22 15 -40 33
-45 44 -94 87 -100 87 -3 0 -24 18 -47 40 -24 22 -65 60 -91 85 -27 25 -53 45
-59 45 -14 0 -38 26 -31 34 4 3 -1 6 -11 6 -9 0 -14 5 -11 10 3 6 2 10 -3 10
-4 0 -19 10 -32 23 -14 12 -28 21 -32 19 -5 -1 -8 5 -8 13 0 8 -4 15 -10 15
-5 0 -18 8 -28 18 -11 9 -49 45 -85 80 -36 34 -71 62 -78 62 -7 0 -10 3 -6 6
3 3 -15 24 -41 46 -26 22 -62 58 -81 79 -19 22 -41 39 -49 39 -9 0 -13 2 -10
5 3 3 -21 32 -53 65 -33 32 -59 61 -59 64 0 3 -19 25 -42 49 -80 82 -124 132
-148 169 -13 20 -28 34 -32 32 -4 -3 -8 2 -8 11 0 9 -4 13 -10 10 -5 -3 -10 1
-10 10 0 8 -13 29 -30 47 -16 17 -30 35 -30 40 0 5 -5 6 -12 2 -6 -4 -8 -3 -4
4 3 6 -5 22 -19 36 -14 14 -25 30 -25 36 0 5 -4 10 -10 10 -5 0 -10 6 -10 13
0 8 -8 23 -17 35 -41 48 -49 59 -72 105 -13 26 -27 47 -31 47 -4 0 -17 23 -30
50 -13 28 -27 50 -32 50 -4 0 -8 10 -8 22 0 12 -3 18 -7 15 -5 -6 -28 32 -38
63 -4 13 -30 66 -35 70 -12 12 -41 70 -34 70 4 0 -1 9 -11 20 -10 11 -15 20
-11 20 4 0 -2 13 -13 29 -12 16 -21 39 -21 50 0 12 -4 21 -10 21 -5 0 -10 11
-10 24 0 23 -22 41 -34 29z m61 -6205 c-3 -7 -5 -2 -5 12 0 14 2 19 5 13 2 -7
2 -19 0 -25z"/>
<path d="M4560 7331 c0 -4 -35 -8 -77 -10 -43 -1 -82 -6 -87 -12 -6 -5 -32 -9
-58 -9 -26 0 -48 -4 -48 -10 0 -5 -18 -10 -40 -10 -22 0 -40 -4 -40 -10 0 -5
-16 -10 -36 -10 -21 0 -33 -4 -29 -10 4 -6 -6 -10 -22 -10 -15 0 -60 -12 -98
-26 -39 -14 -79 -29 -90 -32 -11 -3 -35 -14 -53 -24 -18 -10 -39 -18 -47 -18
-21 0 -85 -32 -85 -42 0 -5 -4 -7 -9 -4 -5 3 -14 -1 -21 -9 -7 -8 -18 -15 -25
-15 -18 0 -95 -42 -95 -52 0 -4 -9 -8 -20 -8 -11 0 -20 -4 -20 -10 0 -5 -8
-10 -18 -10 -10 0 -24 -9 -32 -20 -8 -11 -23 -20 -33 -20 -10 0 -15 -4 -12
-10 3 -5 0 -10 -7 -10 -8 0 -29 -13 -48 -30 -19 -16 -39 -29 -45 -30 -10 0
-55 -36 -107 -85 -15 -14 -32 -25 -37 -25 -6 0 -11 -4 -11 -10 0 -5 -7 -10
-15 -10 -8 0 -15 -4 -15 -8 0 -5 -22 -26 -50 -48 -27 -21 -49 -45 -50 -52 0
-7 -3 -11 -7 -9 -5 2 -45 -34 -90 -80 -45 -46 -81 -83 -79 -83 2 0 -15 -19
-38 -43 -87 -91 -125 -140 -119 -150 3 -6 1 -7 -5 -3 -7 4 -12 3 -12 -2 0 -4
-8 -17 -17 -28 -24 -27 -42 -55 -49 -76 -4 -10 -10 -18 -15 -18 -5 0 -9 -5 -9
-11 0 -7 -8 -19 -18 -28 -9 -9 -28 -37 -41 -63 -13 -27 -28 -48 -33 -48 -4 0
-8 -7 -8 -15 0 -8 -4 -15 -10 -15 -5 0 -10 -7 -10 -15 0 -8 -4 -15 -10 -15 -5
0 -10 -9 -10 -20 0 -11 -4 -20 -9 -20 -7 0 -11 -9 -22 -50 0 -3 -6 -14 -12
-25 -6 -11 -12 -22 -13 -25 -1 -3 -5 -15 -9 -27 -4 -13 -11 -23 -15 -23 -7 0
-19 -25 -26 -52 -1 -5 -3 -10 -4 -13 -1 -3 -3 -9 -4 -14 0 -5 -4 -13 -9 -17
-4 -4 -7 -16 -7 -26 0 -12 -4 -16 -12 -12 -6 4 -8 3 -5 -3 3 -5 -1 -22 -9 -37
-7 -16 -14 -40 -14 -55 0 -20 -2 -23 -10 -11 -7 11 -10 5 -10 -23 0 -21 -4
-36 -8 -33 -4 2 -9 -7 -10 -22 -1 -14 -7 -29 -13 -33 -6 -3 -10 -9 -10 -13 4
-31 -1 -66 -9 -61 -6 4 -10 -8 -10 -30 0 -20 -4 -45 -10 -55 -5 -10 -11 -32
-12 -49 -1 -17 -5 -31 -9 -31 -3 0 -6 -15 -7 -32 -1 -18 -5 -44 -8 -58 -4 -14
-8 -41 -9 -60 -2 -19 -7 -46 -11 -60 -12 -43 -16 -136 -17 -425 -2 -264 3
-377 18 -435 4 -14 8 -41 9 -60 2 -19 6 -51 10 -70 3 -19 8 -48 10 -65 3 -16
14 -70 26 -120 11 -49 23 -109 27 -132 3 -24 10 -43 14 -43 5 0 9 -10 9 -22 0
-23 16 -81 31 -110 5 -10 9 -27 9 -37 0 -11 4 -23 10 -26 6 -3 10 -17 10 -30
0 -13 5 -27 10 -30 6 -3 10 -15 10 -26 0 -10 5 -19 12 -19 6 0 9 -3 5 -6 -8
-8 42 -137 56 -146 7 -4 8 -8 4 -8 -4 0 -2 -10 5 -22 7 -13 13 -25 13 -28 4
-19 41 -90 47 -90 5 0 8 -9 8 -20 0 -11 5 -20 10 -20 6 0 10 -9 10 -20 0 -11
5 -20 10 -20 6 0 10 -10 10 -22 0 -12 3 -18 6 -15 4 4 17 -12 29 -36 34 -67
49 -91 67 -108 10 -9 15 -18 13 -21 -3 -3 4 -13 15 -23 11 -10 20 -24 20 -32
0 -7 5 -13 10 -13 6 0 10 -4 10 -10 0 -12 26 -45 58 -73 12 -11 22 -25 22 -29
0 -5 22 -31 50 -58 27 -28 46 -50 42 -50 -6 0 77 -80 194 -187 31 -29 63 -53
71 -53 8 0 12 -4 9 -8 -5 -8 47 -44 60 -42 3 1 14 -8 23 -19 10 -12 25 -21 32
-21 8 0 21 -9 29 -20 8 -11 20 -20 27 -20 7 0 13 -4 13 -10 0 -5 7 -10 15 -10
8 0 15 -3 15 -8 0 -4 15 -13 33 -21 17 -8 34 -17 37 -20 9 -11 110 -62 110
-57 0 3 9 -2 20 -12 12 -9 24 -17 28 -18 9 -1 60 -22 94 -40 14 -8 36 -14 47
-14 12 0 21 -4 21 -8 0 -4 17 -14 38 -21 20 -7 46 -16 57 -20 41 -16 92 -31
108 -31 9 0 17 -4 17 -10 0 -5 19 -10 43 -10 31 0 38 -3 27 -10 -11 -7 -5 -10
23 -10 23 0 37 -5 37 -12 0 -9 4 -8 10 2 6 10 10 11 10 3 0 -8 13 -13 29 -13
17 0 32 -4 35 -9 3 -5 25 -12 48 -15 24 -3 63 -8 88 -12 25 -3 51 -6 58 -7 6
0 12 -5 12 -10 0 -5 7 -7 15 -3 8 3 47 -1 88 -9 40 -8 88 -14 107 -13 19 0 58
-3 85 -7 69 -10 494 -11 580 -1 39 5 82 8 97 8 15 -1 62 5 105 12 42 8 83 12
90 9 7 -3 13 -1 13 4 0 5 6 10 13 10 6 1 35 4 62 8 28 3 69 9 92 12 24 3 40 9
37 14 -3 5 13 9 35 9 23 0 41 4 41 9 0 5 18 12 40 15 22 3 58 9 80 12 22 3 40
10 40 15 0 5 14 9 30 9 17 0 30 5 30 10 0 6 11 10 24 10 14 0 28 4 31 10 3 5
17 10 30 10 13 0 27 5 30 10 3 6 15 10 26 10 10 0 19 4 19 9 0 5 15 13 33 16
17 4 41 12 52 18 11 6 22 12 25 12 37 9 60 19 60 26 0 5 11 9 25 9 14 0 25 5
25 10 0 6 9 10 20 10 11 0 20 5 20 10 0 6 9 10 20 10 11 0 20 5 20 10 0 6 9
10 20 10 11 0 20 5 20 10 0 6 7 10 15 10 8 0 15 5 15 10 0 6 6 10 14 10 16 0
76 30 61 30 -5 1 10 10 35 22 25 11 55 29 68 39 13 10 42 27 65 38 23 11 58
34 77 51 19 17 47 36 62 42 15 7 24 16 22 20 -3 4 0 8 6 8 6 0 25 13 43 30 18
16 37 30 44 30 6 0 13 3 15 8 2 4 26 25 53 47 69 55 385 370 385 385 0 6 6 8
13 4 8 -5 9 -4 2 3 -5 6 -42 13 -81 16 -110 8 -195 61 -251 154 l-20 33 -21
-20 c-12 -11 -23 -20 -26 -20 -4 0 -19 -14 -97 -85 -9 -8 -19 -15 -24 -15 -4
0 -18 -11 -31 -25 -13 -14 -28 -25 -34 -25 -5 0 -10 -4 -10 -10 0 -5 -7 -10
-15 -10 -8 0 -15 -4 -15 -10 0 -5 -7 -10 -15 -10 -8 0 -15 -4 -15 -10 0 -5 -5
-10 -10 -10 -6 0 -22 -11 -36 -25 -14 -14 -30 -22 -36 -19 -7 4 -8 2 -4 -4 4
-7 1 -12 -8 -12 -9 0 -16 -4 -16 -10 0 -5 -9 -10 -21 -10 -11 0 -17 -4 -14
-10 3 -5 -1 -10 -9 -10 -9 0 -16 -5 -16 -12 0 -6 -3 -8 -6 -5 -8 8 -64 -24
-64 -36 0 -4 -4 -5 -10 -2 -5 3 -10 1 -10 -4 0 -6 -9 -11 -20 -11 -11 0 -20
-4 -20 -10 0 -5 -9 -10 -20 -10 -11 0 -20 -4 -20 -9 0 -9 -60 -37 -72 -33 -5
1 -8 -3 -8 -8 0 -6 -9 -10 -21 -10 -11 0 -17 -4 -14 -10 4 -6 -5 -10 -20 -10
-15 0 -24 -4 -20 -10 5 -8 -15 -13 -41 -9 -4 0 -10 -3 -13 -8 -6 -9 -113 -55
-136 -59 -5 -1 -46 -16 -90 -33 -44 -17 -89 -31 -100 -31 -12 0 -25 -4 -31 -9
-5 -6 -20 -12 -34 -15 -14 -3 -40 -9 -57 -15 -18 -5 -33 -7 -33 -3 0 4 -4 2
-8 -5 -4 -7 -23 -13 -41 -15 -18 -1 -35 -6 -37 -10 -3 -4 -23 -8 -44 -8 -21 0
-42 -5 -45 -10 -3 -5 -26 -10 -51 -10 -24 0 -44 -4 -44 -9 0 -8 -47 -16 -165
-28 -33 -3 -66 -10 -74 -17 -12 -9 -13 -8 -7 3 7 10 4 11 -15 5 -31 -11 -532
-9 -624 2 -38 5 -76 13 -84 18 -10 7 -12 5 -6 -5 6 -11 5 -12 -6 -2 -7 7 -26
13 -42 13 -15 0 -36 4 -46 10 -10 5 -37 10 -59 11 -23 2 -42 7 -42 11 0 4 -13
8 -29 8 -17 0 -33 5 -36 10 -3 6 -16 10 -29 10 -12 0 -26 4 -32 8 -5 5 -35 14
-66 21 -32 7 -58 16 -58 20 0 4 -6 8 -12 8 -7 1 -37 11 -65 22 -29 12 -53 18
-53 15 0 -3 -7 2 -16 11 -9 9 -29 19 -45 22 -16 3 -29 8 -29 12 0 3 -25 17
-55 31 -30 14 -55 28 -55 33 0 4 -9 7 -20 7 -11 0 -20 5 -20 10 0 6 -8 10 -18
10 -10 0 -24 9 -32 20 -8 11 -22 20 -32 20 -10 0 -18 5 -18 12 0 6 -3 9 -6 5
-4 -3 -21 5 -39 18 -17 14 -35 25 -40 25 -7 0 -53 35 -92 70 -13 12 -23 18
-23 15 0 -6 -17 7 -55 42 -13 13 -29 23 -35 23 -5 0 -10 5 -10 10 0 6 -11 15
-25 22 -13 6 -22 15 -19 19 3 5 -3 9 -12 9 -10 0 -15 3 -12 6 3 3 -15 24 -40
47 -59 53 -122 120 -122 129 0 4 -20 28 -45 53 -25 25 -43 45 -39 45 4 0 -5
12 -20 27 -15 14 -34 41 -42 60 -9 18 -20 33 -25 33 -5 0 -9 7 -9 15 0 8 -4
15 -10 15 -5 0 -10 7 -10 15 0 8 -4 15 -10 15 -5 0 -10 10 -10 23 0 18 -2 19
-10 7 -8 -12 -10 -11 -10 8 0 12 -4 22 -10 22 -5 0 -10 9 -10 21 0 11 -4 18
-8 15 -5 -3 -14 12 -21 32 -8 20 -20 45 -29 55 -8 9 -12 17 -8 17 3 0 -10 33
-31 73 -21 39 -38 75 -38 79 0 3 -3 10 -8 14 -4 4 -7 18 -7 31 0 13 -4 23 -10
23 -5 0 -10 11 -10 25 0 14 -4 25 -10 25 -5 0 -10 11 -10 25 0 14 -4 25 -9 25
-8 0 -15 22 -28 98 -3 18 -9 35 -14 38 -5 3 -9 20 -9 39 0 19 -4 37 -10 40 -5
3 -10 22 -10 41 0 19 -3 33 -8 31 -4 -3 -8 18 -10 46 -2 29 -6 54 -10 57 -4 3
-8 16 -9 30 0 14 -4 45 -7 70 -21 160 -21 531 -1 655 2 17 6 51 7 78 1 26 5
47 8 47 3 0 7 15 8 33 2 17 7 46 12 62 5 17 14 57 21 90 7 33 16 64 21 70 4 5
8 22 8 37 0 16 4 37 10 48 5 11 14 29 20 40 5 11 10 29 10 40 0 11 6 20 13 20
8 0 7 4 -3 10 -10 6 -11 10 -2 10 6 0 12 9 12 20 0 11 4 20 8 20 5 0 9 6 10
13 2 30 13 61 27 77 8 9 15 21 15 27 0 10 13 39 56 126 8 16 14 34 14 41 0 7
8 21 18 32 10 10 25 34 32 52 8 17 18 32 22 32 5 0 8 6 8 13 0 7 9 23 20 35
11 12 20 28 20 36 0 8 4 16 9 18 8 3 55 71 79 115 8 13 20 27 28 30 8 3 14 11
14 19 0 7 9 18 20 24 11 6 20 15 20 21 0 5 31 41 70 79 38 39 67 70 64 70 -2
0 12 15 33 33 21 17 50 44 65 60 14 15 31 27 37 27 6 0 11 5 11 10 0 6 5 10
11 10 6 0 23 13 37 28 15 15 55 47 90 71 34 24 62 48 62 52 0 5 3 8 8 7 12 -2
46 15 66 34 11 10 25 18 31 18 6 0 17 9 25 20 10 14 16 16 22 7 6 -9 8 -9 8 1
0 6 7 12 15 12 8 0 15 5 15 10 0 6 7 10 16 10 8 0 12 5 9 10 -3 6 0 10 8 10
15 0 98 40 107 51 3 4 16 10 30 14 14 4 33 14 43 23 9 8 17 12 17 7 0 -4 6 -3
13 2 6 5 31 15 55 23 23 7 42 17 42 22 0 4 11 8 25 8 14 0 25 5 25 10 0 6 11
10 24 10 14 0 28 5 31 10 3 6 15 10 26 10 10 0 19 5 19 10 0 6 14 10 30 10 17
0 30 5 30 10 0 6 12 10 26 10 14 0 23 4 19 10 -3 6 1 10 10 10 24 0 95 24 95
32 0 5 7 8 15 8 8 0 23 4 33 9 21 10 95 44 102 46 3 1 17 5 33 9 15 5 27 12
27 17 0 5 11 9 25 9 14 0 25 5 25 10 0 6 11 10 24 10 13 0 26 5 28 10 2 6 13
12 25 13 12 0 19 5 17 9 -3 4 6 8 20 8 14 0 26 5 26 10 0 6 14 10 30 10 17 0
30 5 30 10 0 6 7 10 15 10 8 0 15 5 15 10 0 6 12 10 26 10 14 0 23 4 20 9 -7
11 -556 13 -556 2z"/>
<path d="M4525 6308 c-55 -14 -126 -49 -147 -72 -10 -11 -18 -14 -18 -7 0 7
-11 1 -25 -13 -13 -13 -34 -27 -45 -31 -11 -4 -18 -11 -15 -16 4 -5 2 -9 -3
-9 -11 0 -112 -93 -112 -103 0 -4 -8 -15 -17 -26 -25 -27 -52 -62 -71 -93 -9
-16 -20 -28 -24 -28 -4 0 -8 -7 -8 -15 0 -8 -4 -15 -10 -15 -5 0 -10 -7 -10
-15 0 -8 -4 -15 -8 -15 -5 0 -14 -16 -22 -35 -8 -19 -17 -35 -22 -35 -4 0 -8
-5 -8 -12 0 -6 -12 -36 -26 -66 -15 -31 -27 -60 -28 -66 -1 -6 -10 -25 -19
-43 -9 -18 -17 -39 -17 -48 0 -8 -4 -15 -10 -15 -5 0 -10 -16 -10 -36 0 -21
-4 -33 -10 -29 -6 4 -10 -8 -10 -29 0 -20 -4 -36 -10 -36 -5 0 -10 -14 -10
-31 0 -17 -4 -38 -9 -48 -6 -10 -11 -38 -13 -63 -2 -26 -6 -44 -10 -41 -5 2
-8 -25 -8 -61 0 -36 -4 -67 -9 -71 -12 -7 -13 -386 -1 -400 5 -6 10 -41 11
-78 1 -37 6 -70 10 -73 5 -3 9 -27 9 -55 0 -27 5 -49 10 -49 6 0 10 -18 10
-39 0 -22 4 -41 10 -43 5 -1 10 -18 12 -35 1 -18 6 -33 10 -33 4 0 8 -8 8 -17
0 -10 14 -56 31 -103 16 -47 32 -93 34 -102 2 -10 8 -26 14 -35 8 -14 10 -1
10 52 -1 39 -4 74 -6 78 -7 11 -7 422 -1 433 3 5 7 45 8 89 4 124 5 125 13
125 4 0 7 27 7 59 0 33 5 63 10 66 6 3 10 28 10 56 0 27 5 49 10 49 6 0 10 18
10 39 0 22 5 43 10 46 6 3 10 21 10 40 0 19 5 37 10 40 6 3 10 22 10 41 0 21
4 33 10 29 6 -4 10 7 10 24 0 17 5 31 11 31 5 0 8 4 5 8 -3 5 1 20 9 35 8 15
12 27 9 27 -3 0 1 10 8 23 14 25 13 21 23 65 4 17 11 32 15 32 8 0 33 54 31
65 -1 3 8 15 19 27 11 12 20 30 20 40 0 10 5 18 10 18 6 0 10 7 10 16 0 8 5
12 10 9 6 -3 10 3 10 14 0 12 3 21 8 21 4 0 18 17 32 38 14 20 33 44 42 53 10
9 15 19 11 23 -3 3 1 6 10 6 10 0 17 4 17 9 0 9 74 92 167 186 34 35 59 66 56
69 -4 3 1 6 10 6 10 0 17 4 17 8 0 4 20 30 45 57 47 52 60 102 33 129 -16 15
-119 18 -173 4z"/>
<path d="M8218 5028 c-1 -35 -2 -78 -1 -95 0 -18 -3 -33 -7 -33 -4 0 -8 -19
-9 -42 -5 -81 -6 -93 -13 -98 -4 -3 -8 -31 -10 -63 -1 -31 -6 -57 -9 -57 -4 0
-9 -17 -12 -37 -3 -21 -10 -58 -16 -83 -7 -25 -14 -61 -17 -80 -3 -19 -10 -36
-15 -38 -5 -2 -9 -15 -9 -28 0 -13 -4 -32 -9 -42 -5 -9 -15 -37 -22 -62 -7
-25 -16 -49 -21 -55 -4 -5 -8 -22 -8 -37 0 -15 -5 -28 -12 -28 -6 0 -8 -3 -5
-7 4 -3 0 -17 -8 -30 -9 -13 -13 -23 -10 -23 3 0 -1 -13 -10 -30 -8 -16 -15
-32 -15 -35 0 -3 -16 -37 -35 -77 -19 -39 -35 -80 -35 -90 0 -11 -4 -16 -10
-13 -6 4 -10 -5 -10 -20 0 -15 -4 -24 -10 -20 -5 3 -10 -1 -10 -9 0 -9 -6 -16
-12 -16 -10 0 -10 -2 -1 -8 9 -6 7 -12 -7 -22 -11 -8 -20 -22 -20 -31 0 -10
-3 -19 -7 -21 -10 -4 -42 -57 -50 -80 -3 -10 -9 -18 -14 -18 -5 0 -9 -5 -9
-12 0 -6 -6 -19 -14 -27 -8 -9 -16 -23 -18 -31 -2 -8 -13 -25 -26 -38 -12 -13
-19 -28 -16 -34 4 -6 2 -8 -4 -4 -6 3 -16 -7 -23 -23 -7 -16 -17 -27 -21 -25
-4 3 -8 -2 -8 -10 0 -9 -4 -16 -10 -16 -5 0 -10 -6 -10 -13 0 -7 -9 -19 -20
-27 -11 -8 -20 -19 -20 -24 0 -5 -9 -16 -20 -26 -18 -15 -19 -28 -17 -117 3
-73 9 -110 23 -139 18 -36 22 -39 59 -38 34 1 46 9 80 46 24 27 48 69 60 104
l20 59 46 3 c32 2 50 -2 59 -13 7 -8 18 -15 24 -15 13 0 46 61 46 83 0 7 9 18
20 25 11 7 20 16 20 21 0 12 60 110 83 135 9 11 17 26 17 33 0 7 5 13 10 13 6
0 10 9 10 20 0 11 5 20 11 20 5 0 8 4 4 9 -3 5 2 16 10 24 8 9 15 25 15 36 0
12 4 21 9 21 8 0 21 34 26 65 1 11 11 37 30 80 8 16 11 33 9 37 -3 4 -1 8 4 8
5 0 12 12 15 28 3 15 9 41 12 57 l7 30 -21 -30 c-12 -16 -32 -46 -44 -65 -18
-27 -30 -36 -58 -38 -63 -5 -70 13 -67 179 l3 144 30 14 c17 8 71 32 120 52
l90 38 -2 253 c-2 271 -8 364 -26 387 -10 12 -9 13 1 7 11 -7 12 -4 3 12 -6
11 -11 38 -11 59 0 37 -16 94 -34 122 -7 11 -6 12 5 6 12 -8 12 -6 0 8 -7 9
-15 17 -17 17 -2 0 -5 -28 -6 -62z"/>
<path d="M6087 4998 c-146 -14 -302 -78 -393 -161 -103 -93 -152 -202 -161
-357 -9 -160 33 -273 139 -377 92 -89 154 -122 453 -241 191 -76 273 -113 321
-146 63 -43 138 -122 168 -176 52 -96 43 -264 -21 -382 -42 -77 -137 -160
-226 -197 -165 -68 -400 -58 -557 25 -120 63 -184 144 -196 248 -5 37 -11 56
-20 56 -11 0 -14 -36 -14 -185 0 -181 0 -185 21 -185 11 0 102 -24 202 -52
l182 -53 170 1 c144 0 182 3 249 22 193 54 335 160 406 305 103 208 73 457
-75 624 -85 97 -233 178 -515 284 -393 148 -503 269 -465 508 15 90 37 138 95
204 97 110 242 151 448 127 198 -23 294 -69 338 -163 13 -29 24 -67 24 -84 0
-23 5 -33 15 -33 13 0 15 25 15 165 l0 165 -45 0 c-25 0 -97 12 -160 26 -129
29 -297 42 -398 32z"/>
<path d="M10808 4904 c-94 -31 -138 -50 -138 -59 0 -8 6 -15 13 -15 21 0 77
-64 87 -101 15 -53 13 -1683 -2 -1750 -9 -37 -23 -64 -50 -92 -21 -22 -38 -44
-38 -49 0 -4 92 -8 205 -8 217 0 239 5 174 42 -18 11 -38 36 -52 65 -19 44
-22 68 -25 281 l-4 234 33 34 c18 19 38 34 45 34 6 0 23 -17 38 -37 14 -21 41
-56 59 -79 34 -43 78 -100 173 -224 171 -223 233 -288 314 -327 48 -24 280
-33 280 -11 0 8 -16 22 -35 31 -55 26 -119 91 -226 227 -54 69 -176 224 -273
345 l-175 220 62 60 c191 186 424 394 470 418 28 16 54 32 55 38 2 5 -56 9
-142 9 -123 0 -146 -2 -146 -15 0 -8 5 -15 10 -15 6 0 10 -11 10 -24 0 -18
-61 -81 -266 -272 -146 -137 -269 -250 -275 -252 -5 -2 -9 250 -9 667 0 633
-1 671 -17 670 -10 -1 -80 -21 -155 -45z"/>
<path d="M7303 4717 c-156 -49 -188 -71 -124 -83 17 -4 37 -14 46 -24 24 -26
36 -129 33 -280 l-3 -135 -92 -3 -93 -3 0 -49 0 -49 93 -3 92 -3 5 -505 c6
-541 4 -520 59 -627 23 -46 95 -99 150 -110 20 -5 70 -8 111 -8 78 0 136 21
217 78 l32 22 1 113 c0 85 -3 112 -13 112 -7 0 -18 -20 -25 -44 -14 -55 -79
-138 -125 -159 -71 -34 -138 -17 -169 45 -28 53 -39 280 -36 718 l3 365 183 3
182 2 0 50 0 50 -182 2 -183 3 -5 285 -5 286 -152 -49z"/>
<path d="M8525 4209 c-113 -7 -175 -26 -362 -110 l-53 -24 0 -113 c0 -135 7
-139 72 -42 50 76 142 153 207 175 98 32 232 24 329 -20 65 -30 148 -113 179
-180 17 -39 47 -176 39 -181 0 0 -71 -20 -156 -44 -453 -126 -646 -236 -710
-406 -44 -117 -11 -274 72 -350 77 -69 177 -100 330 -103 156 -3 288 41 402
134 31 25 58 45 61 45 3 0 5 -36 5 -80 l0 -80 155 0 c117 0 155 3 155 13 0 6
-15 19 -32 27 -19 9 -40 32 -52 55 -20 38 -21 62 -27 475 -4 239 -11 453 -16
475 -15 63 -50 135 -89 182 -62 75 -194 139 -312 149 -37 3 -71 6 -77 7 -5 2
-59 0 -120 -4z m415 -840 l0 -231 -57 -57 c-120 -118 -211 -157 -348 -148
-125 7 -204 49 -258 136 -32 53 -30 152 5 211 68 116 228 210 485 284 65 19
130 35 146 35 l27 1 0 -231z"/>
<path d="M9703 4163 c-97 -30 -153 -51 -153 -60 0 -7 8 -13 19 -13 26 0 89
-72 96 -112 3 -18 5 -251 3 -518 -3 -451 -4 -487 -22 -520 -24 -45 -56 -80
-73 -80 -7 0 -13 -7 -13 -15 0 -13 30 -15 210 -15 176 0 210 2 210 14 0 8 -9
18 -20 21 -12 4 -33 25 -48 48 l-27 41 -3 467 -3 467 53 44 c129 108 205 139
297 120 44 -9 64 -20 92 -50 l36 -38 45 98 46 98 -79 25 c-56 17 -103 25 -154
25 -106 0 -168 -27 -261 -113 l-74 -69 0 91 c0 66 -3 91 -12 90 -7 0 -82 -21
-165 -46z"/>
<path d="M7585 2490 l0 -100 63 0 c56 0 62 2 62 21 0 19 -1 19 -16 5 -8 -9
-29 -16 -45 -16 -28 0 -29 2 -29 46 l0 47 35 -6 c31 -5 35 -3 35 16 0 16 -3
18 -12 9 -7 -7 -22 -12 -35 -12 -20 0 -23 5 -23 40 0 37 2 40 28 40 15 0 33
-5 40 -12 9 -9 12 -8 12 5 0 14 -10 17 -57 17 l-58 0 0 -100z"/>
<path d="M8046 2555 c-6 -17 9 -29 24 -20 14 9 12 22 -4 28 -8 3 -17 -1 -20
-8z"/>
<path d="M7835 2521 c-3 -5 -20 -7 -38 -4 -55 9 -88 -45 -60 -99 12 -26 32
-34 71 -29 7 1 12 -10 12 -29 0 -20 5 -30 15 -30 12 0 15 18 15 100 0 97 -2
111 -15 91z m-17 -67 c4 -49 -19 -65 -49 -38 -35 31 -21 87 20 82 23 -3 26 -8
29 -44z"/>
<path d="M7890 2472 c0 -65 16 -85 69 -84 24 1 44 2 45 4 1 2 0 31 -2 66 -2
41 -8 62 -15 59 -7 -2 -10 -22 -8 -48 2 -49 -16 -76 -44 -65 -11 4 -15 21 -15
61 0 42 -3 55 -15 55 -11 0 -15 -12 -15 -48z"/>
<path d="M8049 2518 c0 -2 -1 -31 -2 -66 -2 -53 0 -62 16 -62 14 0 17 10 17
65 0 51 -3 65 -15 65 -8 0 -15 -1 -16 -2z"/>
<path d="M8115 2421 c0 -93 1 -97 21 -93 16 3 19 9 16 34 -4 26 -2 29 14 24
48 -15 97 51 72 98 -16 30 -27 35 -78 34 l-45 0 0 -97z m103 26 c-4 -38 -30
-56 -52 -38 -22 18 -21 77 1 90 26 14 55 -15 51 -52z"/>
<path d="M8282 2495 c-16 -21 -19 -32 -12 -57 11 -35 8 -32 35 -45 27 -14 85
3 85 24 0 15 -2 15 -18 0 -24 -22 -45 -21 -65 1 -22 24 -13 32 40 32 35 0 43
3 43 18 0 51 -75 69 -108 27z m88 -27 c0 -4 -18 -8 -40 -8 -45 0 -51 11 -18
34 20 14 24 14 40 -1 10 -9 18 -20 18 -25z"/>
</g>
</svg>
